HIERARCHY
ROOT Hips
{
  OFFSET 2.09245 94.0508 -13.8849
  CHANNELS 6 Xposition Yposition Zposition Zrotation Xrotation Yrotation
  JOINT Spine
  {
    OFFSET 0 14.0523 -2.43751
    CHANNELS 6 Xposition Yposition Zposition Zrotation Xrotation Yrotation
    JOINT Spine1
    {
      OFFSET 0 10.3184 0
      CHANNELS 6 Xposition Yposition Zposition Zrotation Xrotation Yrotation
      JOINT Spine2
      {
        OFFSET 0 10.3184 0
        CHANNELS 6 Xposition Yposition Zposition Zrotation Xrotation Yrotation
        JOINT Spine3
        {
          OFFSET 0 10.3184 0
          CHANNELS 6 Xposition Yposition Zposition Zrotation Xrotation Yrotation
          JOINT Neck
          {
            OFFSET 0 13.2665 1.32665
            CHANNELS 6 Xposition Yposition Zposition Zrotation Xrotation Yrotation
            JOINT Neck1
            {
              OFFSET 0 4.28184 0
              CHANNELS 6 Xposition Yposition Zposition Zrotation Xrotation Yrotation
              JOINT Head
              {
                OFFSET 0 4.28184 0
                CHANNELS 6 Xposition Yposition Zposition Zrotation Xrotation Yrotation
                End Site
                {
                  OFFSET 0 9.72808 0
                }
              }
            }
          }
          JOINT RightShoulder
          {
            OFFSET 0 9.47607 5.27092
            CHANNELS 6 Xposition Yposition Zposition Zrotation Xrotation Yrotation
            JOINT RightArm
            {
              OFFSET 0 20.9618 0
              CHANNELS 6 Xposition Yposition Zposition Zrotation Xrotation Yrotation
              JOINT RightForeArm
              {
                OFFSET 0 28.5318 0
                CHANNELS 6 Xposition Yposition Zposition Zrotation Xrotation Yrotation
                JOINT RightHand
                {
                  OFFSET 0 25.9042 0
                  CHANNELS 6 Xposition Yposition Zposition Zrotation Xrotation Yrotation
                  JOINT RightHandThumb1
                  {
                    OFFSET -3.07697 3.53183 2.62623
                    CHANNELS 6 Xposition Yposition Zposition Zrotation Xrotation Yrotation
                    End Site
                    {
                      OFFSET 0 0 0
                    }
                  }
                  JOINT RightHandMiddle1
                  {
                    OFFSET 0 9.41822 -0.0603732
                    CHANNELS 6 Xposition Yposition Zposition Zrotation Xrotation Yrotation
                    End Site
                    {
                      OFFSET 0 0 0
                    }
                  }
                }
              }
            }
          }
          JOINT LeftShoulder
          {
            OFFSET 0 9.47607 5.27092
            CHANNELS 6 Xposition Yposition Zposition Zrotation Xrotation Yrotation
            JOINT LeftArm
            {
              OFFSET 0 20.9618 0
              CHANNELS 6 Xposition Yposition Zposition Zrotation Xrotation Yrotation
              JOINT LeftForeArm
              {
                OFFSET 0 28.5318 0
                CHANNELS 6 Xposition Yposition Zposition Zrotation Xrotation Yrotation
                JOINT LeftHand
                {
                  OFFSET 0 25.9042 0
                  CHANNELS 6 Xposition Yposition Zposition Zrotation Xrotation Yrotation
                  JOINT LeftHandThumb1
                  {
                    OFFSET 3.07697 3.53183 2.62623
                    CHANNELS 6 Xposition Yposition Zposition Zrotation Xrotation Yrotation
                    End Site
                    {
                      OFFSET 0 0 0
                    }
                  }
                  JOINT LeftHandMiddle1
                  {
                    OFFSET 0 9.41822 -0.0603732
                    CHANNELS 6 Xposition Yposition Zposition Zrotation Xrotation Yrotation
                    End Site
                    {
                      OFFSET 0 0 0
                    }
                  }
                }
              }
            }
          }
        }
      }
    }
  }
  JOINT RightUpLeg
  {
    OFFSET -10.9378 0 0
    CHANNELS 6 Xposition Yposition Zposition Zrotation Xrotation Yrotation
    JOINT RightLeg
    {
      OFFSET 0 -45.4583 0
      CHANNELS 6 Xposition Yposition Zposition Zrotation Xrotation Yrotation
      JOINT RightFoot
      {
        OFFSET 0 -42.0045 0
        CHANNELS 6 Xposition Yposition Zposition Zrotation Xrotation Yrotation
        JOINT RightForeFoot
        {
          OFFSET 0 -4.38118 0
          CHANNELS 6 Xposition Yposition Zposition Zrotation Xrotation Yrotation
          JOINT RightToeBase
          {
            OFFSET 0 0 17.1581
            CHANNELS 6 Xposition Yposition Zposition Zrotation Xrotation Yrotation
            End Site
            {
              OFFSET 0 0 6.32614
            }
          }
        }
      }
    }
  }
  JOINT LeftUpLeg
  {
    OFFSET 10.9378 0 0
    CHANNELS 6 Xposition Yposition Zposition Zrotation Xrotation Yrotation
    JOINT LeftLeg
    {
      OFFSET 0 -45.4583 0
      CHANNELS 6 Xposition Yposition Zposition Zrotation Xrotation Yrotation
      JOINT LeftFoot
      {
        OFFSET 0 -42.0045 0
        CHANNELS 6 Xposition Yposition Zposition Zrotation Xrotation Yrotation
        JOINT LeftForeFoot
        {
          OFFSET 0 -4.38118 0
          CHANNELS 6 Xposition Yposition Zposition Zrotation Xrotation Yrotation
          JOINT LeftToeBase
          {
            OFFSET 0 0 17.1581
            CHANNELS 6 Xposition Yposition Zposition Zrotation Xrotation Yrotation
            End Site
            {
              OFFSET 0 0 7.20554
            }
          }
        }
      }
    }
  }
}
MOTION
Frames:	7
Frame Time:	0.00833333
2.17945 94.0372 -14.5355 -0.983687 -13.1625 0.256616 -1.11022e-016 14.0523 -2.43751 3.54766 17.924 -0.337738 8.88178e-016 10.3184 3.55271e-015 1.3411 8.70756 -0.546853 0 10.3184 0 1.62724 7.98702 -1.73962 0 10.3184 7.10543e-015 2.90704 3.10821 -0.517731 -3.55271e-015 13.2665 1.32665 10.6413 6.95381 -0.434103 0 4.28184 0 -4.08481 0.845001 4.20138 0 4.28184 0 -3.27411 -11.8807 -0.307393 0 9.47607 5.27092 92.8306 -24.5938 1.17885 0 20.9618 0 13.1731 61.075 54.332 0 28.5318 0 -180 51.0869 -120.801 0 25.9042 1.42109e-014 11.8787 4.72884 -0 -3.07697 3.53183 2.62624 4.74142e-015 45.2637 4.51883e-015 0 9.41822 -0.0603732 7.95139e-015 5.56597e-015 3.18055e-015 0 9.47607 5.27092 -96.8494 -16.8613 -1.99542 2.84217e-014 20.9618 0 -68.4531 10.5795 34.2786 0 28.5318 0 -3.2316e-007 38.0362 -6.49885 0 25.9042 -3.55271e-015 -4.81025 -10.135 1.29239e-014 3.07697 3.53183 2.62624 7.27388e-015 45.2637 -1.80753e-014 0 9.41822 -0.0603732 -1.59028e-015 -1.59028e-015 -6.36111e-015 -10.9378 0 5.32907e-015 -2.92818 11.5774 -11.9199 0 -45.4583 0 -7.31409e-016 13.5594 1.63587e-015 0 -42.0045 0 -0.540587 -9.04221 -8.4976 0 -4.38118 0 9.93923e-016 0 -6.36111e-015 0 -4.44089e-016 17.1581 -1.51702e-016 11.4368 -3.24499e-015 10.9378 0 0 3.87635 16.4407 10.4922 3.55271e-015 -45.4583 3.55271e-015 -2.40284e-016 4.6139 -3.1909e-015 0 -42.0045 0 -0.0257524 -8.26977 5.54646 -3.55271e-015 -4.38118 0 5.09386e-016 -4.96962e-017 -6.36111e-015 0 4.44089e-016 17.1581 6.52705e-016 12.503 -6.51563e-015 
2.18869 94.0377 -14.5424 -0.981897 -13.1888 0.259739 1.11022e-016 14.0523 -2.43751 3.53666 17.9182 -0.33554 8.88178e-016 10.3184 0 1.34021 8.70661 -0.546233 -1.77636e-015 10.3184 -7.10543e-015 1.62398 7.98536 -1.73819 0 10.3184 0 2.90654 3.1104 -0.517871 0 13.2665 1.32665 10.6337 6.94643 -0.440594 -7.10543e-015 4.28184 0 -4.07511 0.852158 4.19685 -7.10543e-015 4.28184 0 -3.26879 -11.8741 -0.306376 0 9.47607 5.27092 92.8336 -24.5993 1.18036 1.42109e-014 20.9618 -1.42109e-014 13.2551 61.0858 54.235 2.84217e-014 28.5318 -1.42109e-014 -180 51.0868 -120.798 0 25.9042 0 11.8881 4.72092 -1.95301e-006 -3.07697 3.53183 2.62624 6.87631e-015 45.2637 -1.80753e-014 0 9.41822 -0.0603732 -7.95139e-016 7.95139e-016 -0 0 9.47607 5.27092 -96.8508 -16.8623 -1.99595 0 20.9618 -7.10543e-015 -68.4615 10.5812 34.2765 0 28.5318 0 7.15574e-006 38.0022 -6.50536 0 25.9042 -1.77636e-015 -4.80287 -10.1386 -7.08814e-007 3.07697 3.53183 2.62624 1.0425e-014 45.2637 -1.35565e-014 0 9.41822 -0.0603732 -1.59028e-015 -7.95139e-016 -0 -10.9378 0 3.55271e-015 -2.93537 11.6006 -11.9237 -3.55271e-015 -45.4583 1.77636e-015 4.96962e-017 13.5572 -0 3.55271e-015 -42.0045 3.55271e-015 -0.536845 -9.03765 -8.49324 0 -4.38118 0 1.98785e-016 7.95139e-016 6.36111e-015 0 0 17.1581 7.47762e-016 11.4418 3.24504e-015 10.9378 0 1.77636e-015 3.87041 16.4594 10.4917 0 -45.4583 0 3.97569e-016 4.61934 -0 0 -42.0045 3.55271e-015 -0.0199084 -8.27143 5.54545 0 -4.38118 0 -4.09993e-016 -4.96962e-017 -0 0 0 17.1581 1.11816e-016 12.5037 -0 
2.19836 94.0383 -14.5511 -0.980106 -13.2152 0.262864 3.33067e-016 14.0523 -2.43751 3.52565 17.9123 -0.333343 8.88178e-016 10.3184 -3.55271e-015 1.33933 8.70565 -0.545613 0 10.3184 0 1.62072 7.9837 -1.73675 0 10.3184 7.10543e-015 2.90603 3.11258 -0.51801 0 13.2665 1.32665 10.6261 6.93906 -0.447085 7.10543e-015 4.28184 1.42109e-014 -4.06541 0.859315 4.19232 0 4.28184 0 -3.26347 -11.8675 -0.30536 3.55271e-015 9.47607 5.27092 92.8367 -24.6047 1.18188 0 20.9618 0 13.3371 61.0964 54.1379 0 28.5318 -1.42109e-014 -180 51.0868 -120.796 1.42109e-014 25.9042 -1.42109e-014 11.8975 4.71301 -2.60398e-006 -3.07697 3.53183 2.62624 -1.48571e-014 45.2637 2.25941e-014 -2.84217e-014 9.41822 -0.0603732 -3.57812e-015 -3.18055e-015 3.18055e-015 3.55271e-015 9.47607 5.27092 -96.8522 -16.8633 -1.99648 -2.84217e-014 20.9618 -7.10543e-015 -68.47 10.5829 34.2744 -7.10543e-015 28.5318 0 9.7287e-006 37.9681 -6.51186 0 25.9042 -3.55271e-015 -4.79549 -10.1422 -9.45096e-007 3.07697 3.53183 2.62624 1.1279e-014 45.2637 -2.25941e-014 0 9.41822 -0.0603732 1.59028e-015 7.95139e-016 3.18055e-015 -10.9378 0 0 -2.94256 11.6237 -11.9275 0 -45.4583 0 2.76804e-016 13.555 3.27169e-015 0 -42.0045 0 -0.533104 -9.03309 -8.48888 0 -4.38118 0 5.96354e-016 0 -9.54166e-015 0 0 17.1581 1.5345e-015 11.4469 -9.73531e-015 10.9378 0 -1.77636e-015 3.86447 16.4782 10.4912 -3.55271e-015 -45.4583 0 1.13421e-015 4.62478 3.19094e-015 0 -42.0045 -3.55271e-015 -0.0140645 -8.27309 5.54443 0 -4.38118 0 2.98177e-016 -1.49089e-016 -3.18055e-015 0 4.44089e-016 17.1581 5.68704e-016 12.5044 -3.25783e-015 
2.20636 94.0384 -14.5581 -0.978312 -13.2416 0.265989 2.22045e-016 14.0523 -2.43751 3.51464 17.9065 -0.331148 -8.88178e-016 10.3184 0 1.33845 8.7047 -0.544992 -1.77636e-015 10.3184 0 1.61747 7.98205 -1.73532 -1.77636e-015 10.3184 1.42109e-014 2.90553 3.11477 -0.51815 3.55271e-015 13.2665 1.32665 10.6186 6.93169 -0.453578 7.10543e-015 4.28184 1.42109e-014 -4.05571 0.86647 4.18778 7.10543e-015 4.28184 0 -3.25814 -11.8609 -0.304345 0 9.47607 5.27092 92.8397 -24.6102 1.18339 -1.42109e-014 20.9618 1.42109e-014 13.4192 61.107 54.0407 -1.42109e-014 28.5318 0 -180 51.0868 -120.793 1.42109e-014 25.9042 0 11.9069 4.7051 -1.95296e-006 -3.07697 3.53183 2.62624 1.6785e-015 45.2637 -1.35565e-014 0 9.41822 -0.0603732 -6.75868e-015 -2.38542e-015 -0 0 9.47607 5.27092 -96.8536 -16.8643 -1.99701 0 20.9618 -7.10543e-015 -68.4785 10.5846 34.2723 0 28.5318 -1.42109e-014 7.40254e-006 37.9341 -6.51836 0 25.9042 -1.77636e-015 -4.78811 -10.1458 -7.0883e-007 3.07697 3.53183 2.62624 -4.0051e-015 45.2637 4.51883e-015 -7.10543e-015 9.41822 -0.0603732 -1.98785e-015 -7.95139e-016 -0 -10.9378 -1.42109e-014 1.77636e-015 -2.94976 11.6468 -11.9313 0 -45.4583 0 -2.84516e-017 13.5528 -3.27166e-015 3.55271e-015 -42.0045 0 -0.529364 -9.02853 -8.48452 3.55271e-015 -4.38118 0 -1.98785e-016 0 -3.18055e-015 0 2.22045e-016 17.1581 1.88499e-015 11.452 -6.49032e-015 10.9378 0 5.32907e-015 3.85853 16.497 10.4907 3.55271e-015 -45.4583 0 0 4.63023 -0 -3.55271e-015 -42.0045 0 -0.00822052 -8.27474 5.54342 -7.10543e-015 -4.38118 -3.55271e-015 -1.2424e-016 0 -0 -3.55271e-015 0 17.1581 1.83601e-016 12.5051 -3.25784e-015 
2.21402 94.0382 -14.5643 -0.976518 -13.2679 0.269116 2.22045e-016 14.0523 -2.43751 3.50364 17.9006 -0.328953 8.88178e-016 10.3184 3.55271e-015 1.33757 8.70374 -0.544372 -1.77636e-015 10.3184 0 1.61421 7.98039 -1.73388 -3.55271e-015 10.3184 0 2.90503 3.11696 -0.518289 3.55271e-015 13.2665 1.32665 10.611 6.92432 -0.460071 -7.10543e-015 4.28184 -1.42109e-014 -4.046 0.873626 4.18325 -7.10543e-015 4.28184 0 -3.25282 -11.8543 -0.30333 0 9.47607 5.27092 92.8428 -24.6157 1.1849 -1.42109e-014 20.9618 0 13.5014 61.1175 53.9435 -1.42109e-014 28.5318 -1.42109e-014 -180 51.0867 -120.791 -1.42109e-014 25.9042 0 11.9163 4.69719 -0 -3.07697 3.53183 2.62624 1.56087e-015 45.2637 4.51883e-015 1.42109e-014 9.41822 -0.0603732 7.55382e-015 7.95139e-016 -0 0 9.47607 5.27092 -96.855 -16.8653 -1.99754 0 20.9618 0 -68.4869 10.5863 34.2701 7.10543e-015 28.5318 0 1.84077e-007 37.9001 -6.52485 0 25.9042 -1.77636e-015 -4.78072 -10.1495 -6.46223e-015 3.07697 3.53183 2.62624 -6.41993e-015 45.2637 9.03765e-015 0 9.41822 -0.0603732 -7.95139e-016 -7.95139e-016 -0 -10.9378 -1.42109e-014 -3.55271e-015 -2.95695 11.6699 -11.9351 0 -45.4583 0 1.3418e-015 13.5507 -0 0 -42.0045 3.55271e-015 -0.525624 -9.02397 -8.48017 0 -4.38118 0 1.19271e-015 -7.95139e-016 6.36111e-015 0 0 17.1581 -1.83732e-015 11.4571 3.24522e-015 10.9378 -1.42109e-014 0 3.85258 16.5158 10.4902 0 -45.4583 0 -2.28339e-016 4.63567 1.5955e-015 0 -42.0045 0 -0.00237657 -8.2764 5.5424 0 -4.38118 0 -5.71506e-016 -3.47873e-016 -3.18055e-015 -3.55271e-015 2.22045e-016 17.1581 -9.53933e-016 12.5058 3.25785e-015 
2.2239 94.0385 -14.5703 -0.975205 -13.3008 0.273574 -2.22045e-016 14.0523 -2.43751 3.49146 17.8941 -0.326499 -8.88178e-016 10.3184 0 1.33666 8.70229 -0.543758 0 10.3184 0 1.60878 7.97819 -1.73221 0 10.3184 0 2.90345 3.121 -0.518606 3.55271e-015 13.2665 1.32665 10.6132 6.91782 -0.469987 0 4.28184 -1.42109e-014 -4.03767 0.879486 4.17896 0 4.28184 -1.42109e-014 -3.24766 -11.8493 -0.302618 0 9.47607 5.27092 92.8503 -24.6203 1.18827 -1.42109e-014 20.9618 1.42109e-014 13.6266 61.1214 53.8309 0 28.5318 -1.42109e-014 180 51.104 -120.864 1.42109e-014 25.9042 0 11.9888 4.72456 5.21179e-005 -3.07697 3.53183 2.62624 -5.56597e-015 45.2637 -0 -1.42109e-014 9.41822 -0.0603732 -6.36111e-015 -7.95139e-016 -6.36111e-015 0 9.47607 5.27092 -96.8606 -16.8655 -1.99918 0 20.9618 -7.10543e-015 -68.4917 10.5866 34.2677 7.10543e-015 28.5318 0 -1.26935e-007 37.8742 -6.52459 0 25.9042 -3.55271e-015 -4.77479 -10.1251 3.85005e-006 3.07697 3.53183 2.62624 1.1633e-015 45.2637 4.51883e-015 -7.10543e-015 9.41822 -0.0603732 3.97569e-016 0 -3.18055e-015 -10.9378 0 0 -2.96633 11.7025 -11.9614 0 -45.4583 0 -4.96962e-017 13.5492 -0 3.55271e-015 -42.0045 3.55271e-015 -0.513963 -9.01976 -8.45162 0 -4.38118 0 1.98785e-016 -3.97569e-016 -3.18055e-015 -7.10543e-015 2.22045e-016 17.1581 1.4396e-015 11.4544 -3.24519e-015 10.9378 -1.42109e-014 0 3.84808 16.5426 10.4844 0 -45.4583 0 -5.66607e-016 4.64255 -1.59551e-015 3.55271e-015 -42.0045 0 0.00100647 -8.27865 5.54448 0 -4.38118 0 -8.32411e-016 -4.96962e-017 -9.54166e-015 0 0 17.1581 -2.29839e-016 12.4992 -6.51553e-015 
2.2312 94.0402 -14.5708 -0.973891 -13.3336 0.278034 -2.22045e-016 14.0523 -2.43751 3.47928 17.8876 -0.324047 8.88178e-016 10.3184 -3.55271e-015 1.33576 8.70084 -0.543143 0 10.3184 0 1.60335 7.976 -1.73054 0 10.3184 -1.42109e-014 2.90187 3.12503 -0.518923 3.55271e-015 13.2665 1.32665 10.6155 6.91132 -0.479902 -7.10543e-015 4.28184 -1.42109e-014 -4.02933 0.885346 4.17467 0 4.28184 -1.42109e-014 -3.2425 -11.8443 -0.301907 3.55271e-015 9.47607 5.27092 92.8579 -24.625 1.19165 0 20.9618 0 13.7519 61.1252 53.7182 1.42109e-014 28.5318 0 180 51.1213 -120.938 0 25.9042 -1.42109e-014 12.0613 4.75192 6.94933e-005 -3.07697 3.53183 2.62624 -1.68155e-014 45.2637 1.80753e-014 -1.42109e-014 9.41822 -0.0603732 -8.34896e-015 -7.95139e-016 -0 3.55271e-015 9.47607 5.27092 -96.8661 -16.8656 -2.00082 0 20.9618 0 -68.4964 10.5869 34.2653 7.10543e-015 28.5318 0 -2.8916e-007 37.8484 -6.52433 0 25.9042 1.77636e-015 -4.76885 -10.1007 5.13302e-006 3.07697 3.53183 2.62624 1.61969e-015 45.2637 -4.51883e-015 0 9.41822 -0.0603732 -3.97569e-016 0 -0 -10.9378 -1.42109e-014 -1.77636e-015 -2.97569 11.7351 -11.9878 3.55271e-015 -45.4583 0 -7.80761e-016 13.5477 1.63579e-015 0 -42.0045 0 -0.502305 -9.01556 -8.42308 -3.55271e-015 -4.38118 0 9.93923e-016 -3.97569e-016 -6.36111e-015 -3.55271e-015 2.22045e-016 17.1581 -7.47189e-016 11.4518 -3.24516e-015 10.9378 0 0 3.84358 16.5694 10.4785 0 -45.4583 0 -1.98785e-016 4.64944 -0 -3.55271e-015 -42.0045 -3.55271e-015 0.00438961 -8.28091 5.54655 3.55271e-015 -4.38118 3.55271e-015 8.44835e-016 9.93923e-017 -0 0 -2.22045e-016 17.1581 -7.95139e-016 12.4926 -0 
